# xmcd
#
# Track frame offsets:
#	150
#	17200
#	34250
#	48200
#	65913
#	83026
#	102301
#	119651
#	133451
#	153776
#
# Disc length: 2345 seconds
#
# Revision: 1
# Processed by: cddbd v1.5.2PL0 Copyright (c) Steve Scherf et al.
# Submitted via: audiograbber 1.83.01
#
DISCID=8b09270a
DTITLE=Layla Zoe - Shades Of Blue
DYEAR=2006
DGENRE=Blues
TTITLE0=Someday
TTITLE1=Disappearing Delta
TTITLE2=Wade In The Water
TTITLE3=Shaking
TTITLE4=You Won't Call
TTITLE5=You Surprise Me Again (with Bill Johnson)
TTITLE6=Leave You For Good
TTITLE7=When You Gonnah Learn (with Andrea Smith)
TTITLE8=A Change Is Gonnah Come
TTITLE9=Flightplan
EXTD=
EXTT0=
EXTT1=
EXTT2=
EXTT3=
EXTT4=
EXTT5=
EXTT6=
EXTT7=
EXTT8=
EXTT9=
PLAYORDER=
